<?xml version="1.0" standalone="no"?>
<!DOCTYPE svg PUBLIC "-//W3C//DTD SVG 20010904//EN"
 "http://www.w3.org/TR/2001/REC-SVG-20010904/DTD/svg10.dtd">
<svg version="1.0" xmlns="http://www.w3.org/2000/svg"
 width="700.000000pt" height="700.000000pt" viewBox="0 0 700.000000 700.000000"
 preserveAspectRatio="xMidYMid meet">
<metadata>
Created by potrace 1.11, written by Peter Selinger 2001-2013
</metadata>
<g transform="translate(0.000000,700.000000) scale(0.100000,-0.100000)"
fill="#000000" stroke="none">
<path d="M3249 6666 c-2 -2 -38 -7 -79 -10 -151 -13 -360 -48 -515 -87 -250
-63 -535 -170 -760 -286 -157 -81 -416 -247 -540 -346 -33 -26 -70 -56 -81
-65 -88 -70 -263 -237 -364 -348 -408 -446 -704 -1018 -829 -1604 -11 -52 -23
-113 -27 -135 -3 -22 -7 -42 -9 -46 -2 -3 -7 -39 -11 -80 -3 -40 -8 -77 -10
-80 -10 -17 -19 -220 -18 -414 0 -222 8 -346 28 -472 4 -21 8 -51 10 -68 36
-286 172 -706 331 -1019 63 -125 169 -312 185 -326 3 -3 23 -32 44 -65 153
-235 381 -487 656 -725 41 -36 77 -67 80 -70 3 -3 38 -34 78 -70 54 -47 75
-61 81 -51 5 7 22 30 39 50 60 73 438 538 467 575 17 21 40 50 51 64 12 15 55
68 95 118 41 51 118 146 172 211 53 66 97 123 97 126 0 5 -80 74 -154 132 -22
17 -44 35 -50 40 -6 6 -57 47 -113 92 l-101 82 -137 -167 c-75 -92 -150 -185
-168 -207 -18 -21 -42 -51 -54 -65 l-23 -25 -62 65 c-88 92 -111 120 -201 245
-233 323 -396 706 -456 1075 -7 41 -16 94 -20 116 -5 23 -8 54 -7 69 l1 27
360 1 360 2 0 273 0 272 -363 0 c-341 0 -363 1 -358 18 3 9 8 37 11 62 35 267
125 551 261 818 100 197 277 463 308 462 6 -1 34 -31 63 -68 29 -37 63 -78 75
-92 13 -14 41 -48 63 -75 22 -28 50 -61 61 -75 12 -14 56 -67 98 -117 l76 -93
143 117 c78 65 144 120 147 123 3 3 17 15 32 27 15 11 44 35 63 52 l36 31
-127 153 c-70 83 -138 167 -153 185 -14 18 -32 39 -38 47 -7 7 -44 51 -82 98
l-70 86 67 50 c37 27 78 58 92 69 188 140 627 340 850 386 204 42 276 56 333
61 l67 7 0 -378 0 -379 267 1 c148 1 270 2 273 3 3 1 5 166 5 369 0 202 3 370
8 373 10 7 161 -15 267 -40 25 -5 59 -12 76 -15 39 -7 291 -89 341 -111 21
-10 54 -24 73 -33 165 -71 360 -184 508 -295 l94 -70 -40 -41 c-22 -22 -55
-57 -73 -77 -19 -20 -93 -99 -165 -175 -72 -77 -150 -159 -173 -184 l-42 -45
48 -44 c51 -48 190 -179 290 -273 l61 -58 67 73 c37 39 129 137 205 217 75 80
153 162 172 183 l34 38 36 -43 c43 -53 157 -217 192 -278 78 -134 183 -359
220 -471 61 -190 88 -294 111 -439 9 -58 18 -113 20 -122 3 -17 -19 -18 -356
-18 l-359 0 0 -274 0 -274 308 -1 c169 0 331 0 360 0 l53 -1 -5 -37 c-3 -21
-10 -71 -16 -111 -5 -39 -15 -93 -21 -120 -6 -26 -13 -58 -15 -72 -26 -138
-115 -389 -198 -559 -106 -216 -265 -451 -421 -620 -63 -68 -178 -181 -185
-181 -4 0 -24 19 -46 43 -36 40 -149 167 -184 207 -24 28 -143 161 -169 189
-12 14 -38 43 -57 64 l-34 37 -33 -28 c-88 -79 -153 -137 -163 -146 -12 -12
-142 -128 -186 -167 l-28 -24 58 -62 c31 -33 70 -76 86 -95 101 -114 261 -295
270 -303 7 -5 41 -46 76 -90 36 -44 83 -100 105 -125 22 -25 61 -70 86 -100
178 -209 301 -353 323 -376 l25 -27 129 104 c72 57 147 118 168 134 150 117
408 373 508 503 11 15 23 29 26 32 17 15 157 209 216 300 152 235 281 504 377
790 51 150 116 417 131 535 3 22 8 56 11 75 22 142 29 258 30 485 0 196 -8
362 -20 420 -2 11 -7 40 -10 65 -3 25 -7 54 -9 65 -2 11 -7 40 -11 65 -18 116
-72 328 -123 485 -116 355 -343 780 -555 1039 -203 250 -368 417 -562 572 -71
57 -135 108 -141 113 -32 26 -231 155 -314 203 -256 150 -625 301 -890 363
-76 18 -308 65 -342 68 -94 11 -154 19 -178 24 -29 6 -585 14 -591 9z"/>
</g>
</svg>
